# xmcd
#
# Track frame offsets:
#	150
#	9940
#	22196
#	34339
#	47916
#	60644
#	77659
#	86375
#	100916
#	113311
#	126171
#	140680
#	175383
#	187492
#	202497
#
# Disc length: 2818 seconds
#
# Revision: 3
# Processed by: cddbd v1.5.1PL0 Copyright (c) Steve Scherf et al.
# Submitted via: EasyCDDAExtractor 8.2.1.1
#
DISCID=d60b000f
DTITLE=Various Artist - The Roots Of Led Zeppelin (Mojo Presents)
DYEAR=2004
DGENRE=Blues
TTITLE0=Little Richard - Long Tall Sally
TTITLE1=Garnet Mimms - As Long As I Have You
TTITLE2=Travelling Riverside Blues - Robert Johnson
TTITLE3=Bukka White - Shake 'Em On Down
TTITLE4=Santo and Johnny - Summertime
TTITLE5=Bert Jansch - Blackwater Side
TTITLE6=John Redbourn - Nobody's Fault But Mine
TTITLE7=Spirit - Fresh Garbage
TTITLE8=Muddy Waters - You Need Love
TTITLE9=Howlin' Wolf - Killing Floor
TTITLE10=Blind Willie Johnson - In My Time Of Dying
TTITLE11=Davey Graham - She Moved Thru The Bizarre/Blue Ragga
TTITLE12=Joan Baez - Babe, I'm Gonne Leave You
TTITLE13=John Fahey - Dance Of The Inhabitants Of The Palace Of King Phillip X
TTITLE13=IV Of Spain
TTITLE14=Owen Hand - She Likes It
EXTD=YEAR: 2004
EXTT0=
EXTT1=
EXTT2=
EXTT3=
EXTT4=
EXTT5=
EXTT6=
EXTT7=
EXTT8=
EXTT9=
EXTT10=
EXTT11=
EXTT12=
EXTT13=
EXTT14=
PLAYORDER=
